<svg width="128" height="35" viewBox="0 0 128 35" fill="none" xmlns="http://www.w3.org/2000/svg">
<g clip-path="url(#clip0_1201_301)">
<path d="M42.3834 0H34.6773V7.70607H42.3834V0Z" fill="black"/>
<path d="M53.9425 11.5591H46.2364V34.6773H53.9425V11.5591Z" fill="black"/>
<path d="M42.3834 11.5591H34.6773V34.6773H42.3834V11.5591Z" fill="black"/>
<path d="M65.5016 0H46.2364V7.70607H65.5016V0Z" fill="black"/>
<path d="M7.70607 0H0V34.6773H7.70607V0Z" fill="black"/>
<path d="M19.2652 0H11.5591V26.9712H19.2652V0Z" fill="black"/>
<path d="M30.8243 0H23.1182V34.6773H30.8243V0Z" fill="black"/>
<path d="M82.3153 24.3127H79.464L77.7253 27.2795H77.6868L75.847 24.3127H72.7116L76.0878 29.1819L72.3118 34.6773H75.322L77.5616 31.2433H77.6049L79.5218 34.6773H82.7969L79.098 29.1627L82.3153 24.3127Z" fill="black"/>
<path d="M90.4163 20.2284H84.0684V34.6773H87.0978V29.442H90.6523C93.6817 29.442 95.483 27.6022 95.483 24.8761C95.483 22.1501 94.9966 22.4102 94.1874 21.5818C93.3398 20.7149 92.0875 20.2284 90.4066 20.2284H90.4163ZM90.1321 27.0579H87.1027V22.7714H90.1755C91.63 22.7714 92.4776 23.5372 92.4776 24.8954C92.4776 26.2536 91.6685 27.0579 90.1321 27.0579Z" fill="black"/>
<path d="M108.362 24.7124C108.362 23.4168 107.875 22.4102 107.066 21.5818C106.219 20.7149 104.966 20.2284 103.285 20.2284H96.9375V34.6773H99.967V29.1H102.351L105.708 34.6773H109.103L105.486 28.7581C107.307 28.1512 108.357 26.7352 108.357 24.7172L108.362 24.7124ZM103.006 26.716H99.9766V22.7762H103.049C104.504 22.7762 105.352 23.4216 105.352 24.7365C105.352 26.0513 104.542 26.716 103.006 26.716Z" fill="black"/>
<path d="M116.525 19.9443C112.263 19.9443 109.551 23.1567 109.551 27.4818C109.551 31.8068 112.258 35 116.525 35C120.793 35 123.475 31.8068 123.475 27.4818C123.475 23.1567 120.788 19.9443 116.525 19.9443ZM116.545 32.5967C113.896 32.5967 112.542 30.3523 112.542 27.4818C112.542 24.6113 113.896 22.3476 116.545 22.3476C119.194 22.3476 120.484 24.592 120.484 27.4818C120.484 30.3715 119.189 32.5967 116.545 32.5967Z" fill="black"/>
<path d="M126.1 31.277C125.074 31.277 124.27 32.0669 124.27 33.1313C124.27 34.1957 125.074 34.9856 126.1 34.9856C127.126 34.9856 127.93 34.1957 127.93 33.1313C127.93 32.0669 127.126 31.277 126.1 31.277ZM126.1 34.7014C125.243 34.7014 124.607 34.0367 124.607 33.1313C124.607 32.2258 125.243 31.5708 126.1 31.5708C126.957 31.5708 127.593 32.2355 127.593 33.1313C127.593 34.0271 126.967 34.7014 126.1 34.7014Z" fill="black"/>
<path d="M126.929 33.5455C126.89 33.3625 126.823 33.2469 126.64 33.1939V33.1795C126.861 33.1024 126.977 32.9338 126.977 32.7123C126.977 32.3462 126.654 32.1391 126.274 32.1391H125.325V34.0994H125.855V33.3866H126.115C126.307 33.3866 126.404 33.4684 126.423 33.6466C126.447 33.8393 126.452 34.0656 126.505 34.0994H127.025V34.0608C126.948 34.0223 126.977 33.7911 126.933 33.5455H126.929ZM126.177 33.0012H125.85V32.5581H126.177C126.37 32.5581 126.452 32.6352 126.452 32.7797C126.452 32.9242 126.36 33.0012 126.177 33.0012Z" fill="black"/>
</g>
<defs>
<clipPath id="clip0_1201_301">
<rect width="127.93" height="35" fill="white"/>
</clipPath>
</defs>
</svg>
