<svg width="125" height="35" viewBox="0 0 125 35" fill="none" xmlns="http://www.w3.org/2000/svg">
<g id="xPRO_sub-brand_lockup_one-line_rgb_black 1" clip-path="url(#clip0_1_67)">
<g id="Artwork">
<g id="Group">
<path id="Vector" d="M35.1051 34.6768H42.9062V11.5589H35.1051V34.6768ZM46.8068 7.70596H66.3096V0H46.8068V7.70596ZM35.1051 0H42.9062V7.70596H35.1051V0ZM23.4034 34.6768H31.2045V0H23.4034V34.6768ZM11.7017 26.9709H19.5028V0H11.7017V26.9709ZM0 34.6768H7.80113V0H0V34.6768ZM46.8068 34.6768H54.6079V11.5589H46.8068V34.6768Z" fill="black"/>
<g id="Group_2">
<path id="Vector_2" d="M77.0274 29.1801L73.611 24.3099H76.7821L78.6437 27.2806H78.6846L80.4438 24.3099H83.3283L80.0757 29.1598L83.8192 34.6768H80.5052L78.5618 31.2414H78.5208L76.2502 34.6768H73.2019L77.0274 29.1801Z" fill="black"/>
<path id="Vector_3" d="M85.1079 20.2281H91.5317C93.2299 20.2281 94.498 20.7131 95.3571 21.582C96.1753 22.4104 96.6663 23.5422 96.6663 24.8758C96.6663 27.6037 94.8457 29.443 91.7769 29.443H88.1762V34.6768H85.1074V20.2281H85.1079ZM88.1767 27.0585H91.2455C92.8003 27.0585 93.6185 26.2099 93.6185 24.896C93.6185 23.5422 92.7594 22.774 91.2864 22.774H88.1767V27.0585Z" fill="black"/>
<path id="Vector_4" d="M103.622 29.0992H101.208V34.6768H98.1392V20.2281H104.563C106.261 20.2281 107.529 20.7131 108.388 21.582C109.207 22.4104 109.698 23.4208 109.698 24.7145C109.698 26.7354 108.634 28.1499 106.793 28.7562L110.455 34.6768H107.018L103.622 29.0992ZM101.208 26.7146H104.277C105.832 26.7146 106.65 26.0071 106.65 24.7342C106.65 23.4208 105.791 22.774 104.318 22.774H101.208V26.7146Z" fill="black"/>
<path id="Vector_5" d="M110.905 27.4828C110.905 23.1583 113.646 19.945 117.963 19.945C122.279 19.945 125 23.1579 125 27.4828C125 31.8073 122.28 35.0005 117.963 35.0005C113.646 35 110.905 31.8073 110.905 27.4828ZM121.972 27.4828C121.972 24.5931 120.663 22.3497 117.983 22.3497C115.303 22.3497 113.932 24.5926 113.932 27.4828C113.932 30.3523 115.303 32.5957 117.983 32.5957C120.663 32.5957 121.972 30.3523 121.972 27.4828Z" fill="black"/>
</g>
</g>
</g>
</g>
<defs>
<clipPath id="clip0_1_67">
<rect width="125" height="35" fill="white"/>
</clipPath>
</defs>
</svg>
