<svg width="129" height="33" viewBox="0 0 129 33" fill="none" xmlns="http://www.w3.org/2000/svg">
<g id="OL_sub-brand_lockup_two-line_rgb_black 1" clip-path="url(#clip0_13_18)">
<path id="Vector" d="M29.8068 29.9684H36.4305V10.1513H29.8068V29.9684ZM39.7423 6.8484H56.3016V0.242676H39.7423V6.8484ZM29.8068 0.242676H36.4305V6.8484H29.8068V0.242676ZM19.8712 29.9684H26.4949V0.242676H19.8712V29.9684ZM9.93558 23.3627H16.5593V0.242676H9.93558V23.3627ZM0 29.9684H6.62372V0.242676H0V29.9684ZM39.7423 29.9684H46.3661V10.1513H39.7423V29.9684Z" fill="#8B959E"/>
<g id="Group">
<path id="Vector_2" d="M63.8807 17.5825H66.3994V27.8723H72.2358V29.9684H63.8807V17.5825Z" fill="#8B959E"/>
<path id="Vector_3" d="M72.7915 25.5164C72.7915 22.8833 74.5807 20.8392 77.1861 20.8392C80.0522 20.8392 81.5808 23.0219 81.5808 26.192H75.1191C75.2928 27.5605 76.057 28.4094 77.3946 28.4094C78.3152 28.4094 78.8537 27.9936 79.1142 27.318H81.4418C81.1118 28.8944 79.7048 30.2282 77.412 30.2282C74.4591 30.2283 72.7915 28.1668 72.7915 25.5164ZM75.1539 24.5637H79.1143C79.0448 23.4377 78.2978 22.6582 77.2209 22.6582C75.9702 22.6581 75.3623 23.403 75.1539 24.5637Z" fill="#8B959E"/>
<path id="Vector_4" d="M88.0073 28.981H87.9726C87.521 29.6566 86.8783 30.1763 85.3497 30.1763C83.5259 30.1763 82.2405 29.2235 82.2405 27.4566C82.2405 25.4991 83.8386 24.8755 85.8188 24.5983C87.2952 24.3904 87.9726 24.2692 87.9726 23.5936C87.9726 22.9526 87.4689 22.5369 86.4788 22.5369C85.3671 22.5369 84.8287 22.9353 84.7592 23.7841H82.6574C82.7269 22.225 83.8907 20.8566 86.4962 20.8566C89.1712 20.8566 90.2481 22.0518 90.2481 24.1306V28.6519C90.2481 29.3274 90.3524 29.7259 90.5608 29.8818V29.9684H88.2853C88.1464 29.7952 88.0595 29.3794 88.0073 28.981ZM88.0247 26.833V25.4991C87.6078 25.7416 86.9651 25.8802 86.3746 26.0188C85.1413 26.296 84.5333 26.5731 84.5333 27.4046C84.5333 28.2361 85.0892 28.5306 85.9229 28.5306C87.2778 28.5306 88.0247 27.6991 88.0247 26.833Z" fill="#8B959E"/>
<path id="Vector_5" d="M94.0172 22.5022H94.0693C94.6077 21.4975 95.2157 20.9778 96.2579 20.9778C96.5184 20.9778 96.6748 20.9951 96.8138 21.0471V23.1085H96.7617C95.2157 22.9526 94.104 23.7668 94.104 25.6377V29.9684H91.7417V21.0817H94.0172L94.0172 22.5022Z" fill="#8B959E"/>
<path id="Vector_6" d="M100.149 22.2943H100.201C100.809 21.3416 101.625 20.8392 102.841 20.8392C104.682 20.8392 105.916 22.225 105.916 24.1653V29.9685H103.553V24.5117C103.553 23.559 102.997 22.8834 102.007 22.8834C100.965 22.8834 100.201 23.7149 100.201 24.9275V29.9685H97.8385V21.0817H100.149L100.149 22.2943Z" fill="#8B959E"/>
<path id="Vector_7" d="M107.375 17.5825H109.737V19.6959H107.375V17.5825ZM107.375 21.0817H109.737V29.9684H107.375V21.0817Z" fill="#8B959E"/>
<path id="Vector_8" d="M113.575 22.2943H113.628C114.236 21.3416 115.052 20.8392 116.268 20.8392C118.109 20.8392 119.342 22.225 119.342 24.1653V29.9685H116.98V24.5117C116.98 23.559 116.424 22.8834 115.434 22.8834C114.392 22.8834 113.628 23.7149 113.628 24.9275V29.9685H111.265V21.0817H113.575L113.575 22.2943Z" fill="#8B959E"/>
<path id="Vector_9" d="M120.558 30.2283H122.903C123.094 30.7826 123.598 31.2157 124.692 31.2157C126.03 31.2157 126.672 30.5747 126.672 29.3621V28.392H126.62C126.099 28.981 125.422 29.4314 124.293 29.4314C122.313 29.4314 120.367 27.8723 120.367 25.1873C120.367 22.5369 121.965 20.8392 124.223 20.8392C125.335 20.8392 126.151 21.2723 126.69 22.0172H126.725V21.0817H129V29.2928C129 30.5401 128.601 31.3889 127.94 31.9952C127.194 32.6881 126.047 33 124.727 33C122.295 33 120.801 31.9605 120.558 30.2283ZM126.794 25.1353C126.794 23.836 126.099 22.7274 124.675 22.7274C123.476 22.7274 122.677 23.6628 122.677 25.1526C122.677 26.6597 123.476 27.5432 124.692 27.5432C126.186 27.5432 126.794 26.4519 126.794 25.1353Z" fill="#8B959E"/>
</g>
<g id="Group_2">
<path id="Vector_10" d="M63.3422 6.46147C63.3422 2.75438 65.6698 0 69.3349 0C73 0 75.3102 2.75438 75.3102 6.46147C75.3102 10.1686 73 12.9056 69.3349 12.9056C65.6698 12.9056 63.3422 10.1686 63.3422 6.46147ZM72.7394 6.46147C72.7394 3.98429 71.6277 2.06144 69.3522 2.06144C67.0768 2.06144 65.913 3.98429 65.913 6.46147C65.913 8.92132 67.0767 10.8442 69.3522 10.8442C71.6277 10.8442 72.7394 8.92132 72.7394 6.46147Z" fill="#8B959E"/>
<path id="Vector_11" d="M76.4912 3.74178H78.7667V4.85047H78.8188C79.392 4.07095 80.2258 3.49927 81.4417 3.49927C83.804 3.49927 85.3152 5.42211 85.3152 8.19379C85.3152 11.0694 83.7519 12.8883 81.4591 12.8883C80.2084 12.8883 79.392 12.3859 78.8883 11.6237H78.8535V15.5387H76.4912V3.74178ZM82.9182 8.26306C82.9182 6.58278 82.3275 5.40481 80.8685 5.40481C79.392 5.40481 78.8014 6.66939 78.8014 8.26306C78.8014 9.87407 79.5483 10.9308 80.9553 10.9308C82.1539 10.9308 82.9182 9.94339 82.9182 8.26306Z" fill="#8B959E"/>
<path id="Vector_12" d="M85.9751 8.17645C85.9751 5.54337 87.7642 3.49927 90.3697 3.49927C93.2358 3.49927 94.7644 5.68196 94.7644 8.85205H88.3027C88.4764 10.2206 89.2407 11.0694 90.5782 11.0694C91.4988 11.0694 92.0373 10.6536 92.2978 9.978H94.6254C94.2954 11.5544 92.8884 12.8883 90.5956 12.8883C87.6426 12.8883 85.9751 10.8268 85.9751 8.17645ZM88.3375 7.2237H92.2979C92.2284 6.09771 91.4814 5.31819 90.4046 5.31819C89.1539 5.31815 88.5459 6.06303 88.3375 7.2237Z" fill="#8B959E"/>
<path id="Vector_13" d="M98.1687 4.95438H98.2208C98.8288 4.00163 99.6452 3.49927 100.861 3.49927C102.702 3.49927 103.936 4.88506 103.936 6.82529V12.6285H101.573V7.17176C101.573 6.21901 101.017 5.54341 100.027 5.54341C98.9851 5.54341 98.2208 6.37494 98.2208 7.58754V12.6285H95.8585V3.74178H98.1687L98.1687 4.95438Z" fill="#8B959E"/>
</g>
</g>
<defs>
<clipPath id="clip0_13_18">
<rect width="129" height="33" fill="white"/>
</clipPath>
</defs>
</svg>
